<svg xmlns="http://www.w3.org/2000/svg" width="900" height="646" viewBox="0 0 900 646" font-family="-apple-system, BlinkMacSystemFont, 'Segoe UI', Helvetica, Arial, sans-serif"><rect x="0.5" y="0.5" width="899" height="645" rx="12" fill="#ffffff" stroke="#e1e4e8"/><text x="24" y="40" font-size="22" font-weight="700" fill="#0D2F71">Evaluation metrics adopted by generative-method papers</text><text x="24" y="64" font-size="15" fill="#5f6b7a">Share of papers in each period that report the metric</text><text x="328.2" y="100" font-size="16" font-weight="700" fill="#3d4752" text-anchor="middle">≤2021 (n=22)</text><text x="484.8" y="100" font-size="16" font-weight="700" fill="#3d4752" text-anchor="middle">2022–23 (n=17)</text><text x="641.2" y="100" font-size="16" font-weight="700" fill="#3d4752" text-anchor="middle">2024 (n=20)</text><text x="797.8" y="100" font-size="16" font-weight="700" fill="#3d4752" text-anchor="middle">≥2025 (n=36)</text><rect x="24" y="118" width="6" height="22" rx="2" fill="#2F855A"/><text x="40" y="135.0" font-size="16" fill="#24292e">Step-level KLD</text><rect x="252.0" y="114" width="152.5" height="30" rx="4" fill="#BBD7C9"/><text x="328.2" y="135.0" font-size="16" font-weight="400" fill="#24292e" text-anchor="middle">27%</text><rect x="408.5" y="114" width="152.5" height="30" rx="4" fill="#C0DACD"/><text x="484.8" y="135.0" font-size="16" font-weight="400" fill="#24292e" text-anchor="middle">24%</text><rect x="565.0" y="114" width="152.5" height="30" rx="4" fill="#D2E4DB"/><text x="641.2" y="135.0" font-size="16" font-weight="400" fill="#24292e" text-anchor="middle">15%</text><rect x="721.5" y="114" width="152.5" height="30" rx="4" fill="#B9D6C7"/><text x="797.8" y="135.0" font-size="16" font-weight="400" fill="#24292e" text-anchor="middle">28%</text><rect x="24" y="152" width="6" height="22" rx="2" fill="#2F855A"/><text x="40" y="169.0" font-size="16" fill="#24292e">Text-level KLD</text><rect x="252.0" y="148" width="152.5" height="30" rx="4" fill="#D4E6DD"/><text x="328.2" y="169.0" font-size="16" font-weight="400" fill="#24292e" text-anchor="middle">14%</text><rect x="408.5" y="148" width="152.5" height="30" rx="4" fill="#C0DACD"/><text x="484.8" y="169.0" font-size="16" font-weight="400" fill="#24292e" text-anchor="middle">24%</text><rect x="565.0" y="148" width="152.5" height="30" rx="4" fill="#BFD9CC"/><text x="641.2" y="169.0" font-size="16" font-weight="400" fill="#24292e" text-anchor="middle">25%</text><rect x="721.5" y="148" width="152.5" height="30" rx="4" fill="#CAE0D5"/><text x="797.8" y="169.0" font-size="16" font-weight="400" fill="#24292e" text-anchor="middle">19%</text><rect x="24" y="186" width="6" height="22" rx="2" fill="#2F855A"/><text x="40" y="203.0" font-size="16" fill="#24292e">Perplexity</text><rect x="252.0" y="182" width="152.5" height="30" rx="4" fill="#6CA98B"/><text x="328.2" y="203.0" font-size="16" font-weight="600" fill="#ffffff" text-anchor="middle">68%</text><rect x="408.5" y="182" width="152.5" height="30" rx="4" fill="#66A686"/><text x="484.8" y="203.0" font-size="16" font-weight="600" fill="#ffffff" text-anchor="middle">71%</text><rect x="565.0" y="182" width="152.5" height="30" rx="4" fill="#4C9671"/><text x="641.2" y="203.0" font-size="16" font-weight="600" fill="#ffffff" text-anchor="middle">85%</text><rect x="721.5" y="182" width="152.5" height="30" rx="4" fill="#65A485"/><text x="797.8" y="203.0" font-size="16" font-weight="600" fill="#ffffff" text-anchor="middle">72%</text><rect x="24" y="220" width="6" height="22" rx="2" fill="#2F855A"/><text x="40" y="237.0" font-size="16" fill="#24292e">BLEU</text><rect x="252.0" y="216" width="152.5" height="30" rx="4" fill="#D4E6DD"/><text x="328.2" y="237.0" font-size="16" font-weight="400" fill="#24292e" text-anchor="middle">14%</text><rect x="408.5" y="216" width="152.5" height="30" rx="4" fill="#B7D5C6"/><text x="484.8" y="237.0" font-size="16" font-weight="400" fill="#24292e" text-anchor="middle">29%</text><rect x="565.0" y="216" width="152.5" height="30" rx="4" fill="#BFD9CC"/><text x="641.2" y="237.0" font-size="16" font-weight="400" fill="#24292e" text-anchor="middle">25%</text><rect x="721.5" y="216" width="152.5" height="30" rx="4" fill="#D9E9E1"/><text x="797.8" y="237.0" font-size="16" font-weight="400" fill="#24292e" text-anchor="middle">11%</text><rect x="24" y="254" width="6" height="22" rx="2" fill="#2F855A"/><text x="40" y="271.0" font-size="16" fill="#24292e">ROUGE</text><rect x="252.0" y="250" width="152.5" height="30" rx="4" fill="#DDEBE4"/><text x="328.2" y="271.0" font-size="16" font-weight="400" fill="#24292e" text-anchor="middle">9%</text><rect x="408.5" y="250" width="152.5" height="30" rx="4" fill="#CCE1D6"/><text x="484.8" y="271.0" font-size="16" font-weight="400" fill="#24292e" text-anchor="middle">18%</text><rect x="565.0" y="250" width="152.5" height="30" rx="4" fill="#C8DFD3"/><text x="641.2" y="271.0" font-size="16" font-weight="400" fill="#24292e" text-anchor="middle">20%</text><rect x="721.5" y="250" width="152.5" height="30" rx="4" fill="#D9E9E1"/><text x="797.8" y="271.0" font-size="16" font-weight="400" fill="#24292e" text-anchor="middle">11%</text><rect x="24" y="288" width="6" height="22" rx="2" fill="#2F855A"/><text x="40" y="305.0" font-size="16" fill="#24292e">METEOR</text><rect x="252.0" y="284" width="152.5" height="30" rx="4" fill="#DDEBE4"/><text x="328.2" y="305.0" font-size="16" font-weight="400" fill="#24292e" text-anchor="middle">9%</text><rect x="408.5" y="284" width="152.5" height="30" rx="4" fill="#D7E8E0"/><text x="484.8" y="305.0" font-size="16" font-weight="400" fill="#24292e" text-anchor="middle">12%</text><rect x="565.0" y="284" width="152.5" height="30" rx="4" fill="#E5F0EA"/><text x="641.2" y="305.0" font-size="16" font-weight="400" fill="#24292e" text-anchor="middle">5%</text><rect x="721.5" y="284" width="152.5" height="30" rx="4" fill="#E9F2ED"/><text x="797.8" y="305.0" font-size="16" font-weight="400" fill="#24292e" text-anchor="middle">3%</text><rect x="24" y="322" width="6" height="22" rx="2" fill="#2F855A"/><text x="40" y="339.0" font-size="16" fill="#24292e">Diversity</text><rect x="252.0" y="318" width="152.5" height="30" rx="4" fill="#E5F0EA"/><text x="328.2" y="339.0" font-size="16" font-weight="400" fill="#24292e" text-anchor="middle">5%</text><rect x="408.5" y="318" width="152.5" height="30" rx="4" fill="#E3EFE9"/><text x="484.8" y="339.0" font-size="16" font-weight="400" fill="#24292e" text-anchor="middle">6%</text><rect x="565.0" y="318" width="152.5" height="30" rx="4" fill="#C8DFD3"/><text x="641.2" y="339.0" font-size="16" font-weight="400" fill="#24292e" text-anchor="middle">20%</text><rect x="721.5" y="318" width="152.5" height="30" rx="4" fill="#D4E6DD"/><text x="797.8" y="339.0" font-size="16" font-weight="400" fill="#24292e" text-anchor="middle">14%</text><rect x="24" y="356" width="6" height="22" rx="2" fill="#2F855A"/><text x="40" y="373.0" font-size="16" fill="#24292e">Human evaluation</text><rect x="252.0" y="352" width="152.5" height="30" rx="4" fill="#C2DBCF"/><text x="328.2" y="373.0" font-size="16" font-weight="400" fill="#24292e" text-anchor="middle">23%</text><rect x="408.5" y="352" width="152.5" height="30" rx="4" fill="#f6f8fa"/><text x="484.8" y="373.0" font-size="16" font-weight="400" fill="#24292e" text-anchor="middle">0%</text><rect x="565.0" y="352" width="152.5" height="30" rx="4" fill="#DBEAE3"/><text x="641.2" y="373.0" font-size="16" font-weight="400" fill="#24292e" text-anchor="middle">10%</text><rect x="721.5" y="352" width="152.5" height="30" rx="4" fill="#D4E6DD"/><text x="797.8" y="373.0" font-size="16" font-weight="400" fill="#24292e" text-anchor="middle">14%</text><rect x="24" y="390" width="6" height="22" rx="2" fill="#2F855A"/><text x="40" y="407.0" font-size="16" fill="#24292e">LLM-as-a-judge</text><rect x="252.0" y="386" width="152.5" height="30" rx="4" fill="#f6f8fa"/><text x="328.2" y="407.0" font-size="16" font-weight="400" fill="#24292e" text-anchor="middle">0%</text><rect x="408.5" y="386" width="152.5" height="30" rx="4" fill="#f6f8fa"/><text x="484.8" y="407.0" font-size="16" font-weight="400" fill="#24292e" text-anchor="middle">0%</text><rect x="565.0" y="386" width="152.5" height="30" rx="4" fill="#D2E4DB"/><text x="641.2" y="407.0" font-size="16" font-weight="400" fill="#24292e" text-anchor="middle">15%</text><rect x="721.5" y="386" width="152.5" height="30" rx="4" fill="#f6f8fa"/><text x="797.8" y="407.0" font-size="16" font-weight="400" fill="#24292e" text-anchor="middle">0%</text><rect x="24" y="424" width="6" height="22" rx="2" fill="#2F855A"/><text x="40" y="441.0" font-size="16" fill="#24292e">Steganalysis</text><rect x="252.0" y="420" width="152.5" height="30" rx="4" fill="#85B89E"/><text x="328.2" y="441.0" font-size="16" font-weight="600" fill="#ffffff" text-anchor="middle">55%</text><rect x="408.5" y="420" width="152.5" height="30" rx="4" fill="#5DA07E"/><text x="484.8" y="441.0" font-size="16" font-weight="600" fill="#ffffff" text-anchor="middle">76%</text><rect x="565.0" y="420" width="152.5" height="30" rx="4" fill="#5FA180"/><text x="641.2" y="441.0" font-size="16" font-weight="600" fill="#ffffff" text-anchor="middle">75%</text><rect x="721.5" y="420" width="152.5" height="30" rx="4" fill="#599E7B"/><text x="797.8" y="441.0" font-size="16" font-weight="600" fill="#ffffff" text-anchor="middle">78%</text><rect x="24" y="458" width="6" height="22" rx="2" fill="#005CB8"/><text x="40" y="475.0" font-size="16" fill="#24292e">Bits per token</text><rect x="252.0" y="454" width="152.5" height="30" rx="4" fill="#3F84CA"/><text x="328.2" y="475.0" font-size="16" font-weight="600" fill="#ffffff" text-anchor="middle">73%</text><rect x="408.5" y="454" width="152.5" height="30" rx="4" fill="#4487CB"/><text x="484.8" y="475.0" font-size="16" font-weight="600" fill="#ffffff" text-anchor="middle">71%</text><rect x="565.0" y="454" width="152.5" height="30" rx="4" fill="#3B81C8"/><text x="641.2" y="475.0" font-size="16" font-weight="600" fill="#ffffff" text-anchor="middle">75%</text><rect x="721.5" y="454" width="152.5" height="30" rx="4" fill="#2171C1"/><text x="797.8" y="475.0" font-size="16" font-weight="600" fill="#ffffff" text-anchor="middle">86%</text><rect x="24" y="492" width="6" height="22" rx="2" fill="#005CB8"/><text x="40" y="509.0" font-size="16" fill="#24292e">Entropy utilization</text><rect x="252.0" y="488" width="152.5" height="30" rx="4" fill="#f6f8fa"/><text x="328.2" y="509.0" font-size="16" font-weight="400" fill="#24292e" text-anchor="middle">0%</text><rect x="408.5" y="488" width="152.5" height="30" rx="4" fill="#CEE0F1"/><text x="484.8" y="509.0" font-size="16" font-weight="400" fill="#24292e" text-anchor="middle">12%</text><rect x="565.0" y="488" width="152.5" height="30" rx="4" fill="#f6f8fa"/><text x="641.2" y="509.0" font-size="16" font-weight="400" fill="#24292e" text-anchor="middle">0%</text><rect x="721.5" y="488" width="152.5" height="30" rx="4" fill="#B7D1EB"/><text x="797.8" y="509.0" font-size="16" font-weight="400" fill="#24292e" text-anchor="middle">22%</text><rect x="24" y="526" width="6" height="22" rx="2" fill="#005CB8"/><text x="40" y="543.0" font-size="16" fill="#24292e">Embedding rate</text><rect x="252.0" y="522" width="152.5" height="30" rx="4" fill="#ABC9E8"/><text x="328.2" y="543.0" font-size="16" font-weight="400" fill="#24292e" text-anchor="middle">27%</text><rect x="408.5" y="522" width="152.5" height="30" rx="4" fill="#A7C6E6"/><text x="484.8" y="543.0" font-size="16" font-weight="400" fill="#24292e" text-anchor="middle">29%</text><rect x="565.0" y="522" width="152.5" height="30" rx="4" fill="#D3E3F3"/><text x="641.2" y="543.0" font-size="16" font-weight="400" fill="#24292e" text-anchor="middle">10%</text><rect x="721.5" y="522" width="152.5" height="30" rx="4" fill="#D1E1F2"/><text x="797.8" y="543.0" font-size="16" font-weight="400" fill="#24292e" text-anchor="middle">11%</text><rect x="24" y="560" width="6" height="22" rx="2" fill="#005CB8"/><text x="40" y="577.0" font-size="16" fill="#24292e">Operation speed</text><rect x="252.0" y="556" width="152.5" height="30" rx="4" fill="#A0C2E4"/><text x="328.2" y="577.0" font-size="16" font-weight="400" fill="#24292e" text-anchor="middle">32%</text><rect x="408.5" y="556" width="152.5" height="30" rx="4" fill="#A7C6E6"/><text x="484.8" y="577.0" font-size="16" font-weight="400" fill="#24292e" text-anchor="middle">29%</text><rect x="565.0" y="556" width="152.5" height="30" rx="4" fill="#C7DBF0"/><text x="641.2" y="577.0" font-size="16" font-weight="400" fill="#24292e" text-anchor="middle">15%</text><rect x="721.5" y="556" width="152.5" height="30" rx="4" fill="#6EA2D7"/><text x="797.8" y="577.0" font-size="16" font-weight="600" fill="#ffffff" text-anchor="middle">53%</text><rect x="24" y="594" width="6" height="22" rx="2" fill="#E67800"/><text x="40" y="611.0" font-size="16" fill="#24292e">Error rate</text><rect x="252.0" y="590" width="152.5" height="30" rx="4" fill="#f6f8fa"/><text x="328.2" y="611.0" font-size="16" font-weight="400" fill="#24292e" text-anchor="middle">0%</text><rect x="408.5" y="590" width="152.5" height="30" rx="4" fill="#F5C998"/><text x="484.8" y="611.0" font-size="16" font-weight="400" fill="#24292e" text-anchor="middle">35%</text><rect x="565.0" y="590" width="152.5" height="30" rx="4" fill="#F7D5B0"/><text x="641.2" y="611.0" font-size="16" font-weight="400" fill="#24292e" text-anchor="middle">25%</text><rect x="721.5" y="590" width="152.5" height="30" rx="4" fill="#F1B26E"/><text x="797.8" y="611.0" font-size="16" font-weight="600" fill="#ffffff" text-anchor="middle">53%</text></svg>
