<svg xmlns="http://www.w3.org/2000/svg" width="900" height="1450" viewBox="0 0 900 1450" font-family="-apple-system, BlinkMacSystemFont, 'Segoe UI', Helvetica, Arial, sans-serif"><rect x="0.5" y="0.5" width="899" height="1449" rx="12" fill="#ffffff" stroke="#e1e4e8"/><text x="24" y="40" font-size="22" font-weight="700" fill="#0D2F71">Taxonomy (number of entries)</text><path d="M490,156 H508 V99 H528" fill="none" stroke="#E67800" stroke-width="2"/><rect x="528" y="84.0" width="348" height="30" rx="7" fill="#FCF2E6"/><text x="542" y="105.0" font-size="16" fill="#24292e">Space-based</text><rect x="822" y="88.0" width="46" height="22" rx="11" fill="#E67800"/><text x="845" y="104.0" font-size="15" font-weight="700" fill="#ffffff" text-anchor="middle">9</text><path d="M490,156 H508 V137 H528" fill="none" stroke="#E67800" stroke-width="2"/><rect x="528" y="122.0" width="348" height="30" rx="7" fill="#FCF2E6"/><text x="542" y="143.0" font-size="16" fill="#24292e">Encoding-based</text><rect x="822" y="126.0" width="46" height="22" rx="11" fill="#E67800"/><text x="845" y="142.0" font-size="15" font-weight="700" fill="#ffffff" text-anchor="middle">8</text><path d="M490,156 H508 V175 H528" fill="none" stroke="#E67800" stroke-width="2"/><rect x="528" y="160.0" width="348" height="30" rx="7" fill="#FCF2E6"/><text x="542" y="181.0" font-size="16" fill="#24292e">Font-based</text><rect x="822" y="164.0" width="46" height="22" rx="11" fill="#E67800"/><text x="845" y="180.0" font-size="15" font-weight="700" fill="#ffffff" text-anchor="middle">8</text><path d="M490,156 H508 V213 H528" fill="none" stroke="#E67800" stroke-width="2"/><rect x="528" y="198.0" width="348" height="30" rx="7" fill="#FCF2E6"/><text x="542" y="219.0" font-size="16" fill="#24292e">Spelling-based</text><rect x="822" y="202.0" width="46" height="22" rx="11" fill="#E67800"/><text x="845" y="218.0" font-size="15" font-weight="700" fill="#ffffff" text-anchor="middle">2</text><rect x="254" y="84" width="236" height="144" rx="9" fill="#F8D9B8"/><text x="268" y="143" font-size="16" font-weight="700" fill="#1f2933">Format-based</text><text x="268" y="162" font-size="16" font-weight="700" fill="#1f2933">(non-linguistic)</text><text x="268" y="181" font-size="14" fill="#3d4752">26 entries</text><path d="M490,284 H508 V265 H528" fill="none" stroke="#E67800" stroke-width="2"/><rect x="528" y="250.0" width="348" height="30" rx="7" fill="#FCF2E6"/><text x="542" y="271.0" font-size="16" fill="#24292e">Synonym-based</text><rect x="822" y="254.0" width="46" height="22" rx="11" fill="#E67800"/><text x="845" y="270.0" font-size="15" font-weight="700" fill="#ffffff" text-anchor="middle">13</text><path d="M490,284 H508 V303 H528" fill="none" stroke="#E67800" stroke-width="2"/><rect x="528" y="288.0" width="348" height="30" rx="7" fill="#FCF2E6"/><text x="542" y="309.0" font-size="16" fill="#24292e">Masked-LM-based</text><rect x="822" y="292.0" width="46" height="22" rx="11" fill="#E67800"/><text x="845" y="308.0" font-size="15" font-weight="700" fill="#ffffff" text-anchor="middle">9</text><rect x="254" y="250" width="236" height="68" rx="9" fill="#F8D9B8"/><text x="268" y="280" font-size="16" font-weight="700" fill="#1f2933">Lexicon-based</text><text x="268" y="300" font-size="14" fill="#3d4752">22 entries</text><path d="M490,374 H508 V355 H528" fill="none" stroke="#E67800" stroke-width="2"/><rect x="528" y="340.0" width="348" height="30" rx="7" fill="#FCF2E6"/><text x="542" y="361.0" font-size="16" fill="#24292e">Syntax-based</text><rect x="822" y="344.0" width="46" height="22" rx="11" fill="#E67800"/><text x="845" y="360.0" font-size="15" font-weight="700" fill="#ffffff" text-anchor="middle">3</text><path d="M490,374 H508 V393 H528" fill="none" stroke="#E67800" stroke-width="2"/><rect x="528" y="378.0" width="348" height="30" rx="7" fill="#FCF2E6"/><text x="542" y="399.0" font-size="16" fill="#24292e">Paraphrasing-based</text><rect x="822" y="382.0" width="46" height="22" rx="11" fill="#E67800"/><text x="845" y="398.0" font-size="15" font-weight="700" fill="#ffffff" text-anchor="middle">8</text><rect x="254" y="340" width="236" height="68" rx="9" fill="#F8D9B8"/><text x="268" y="370" font-size="16" font-weight="700" fill="#1f2933">Rewriting-based</text><text x="268" y="390" font-size="14" fill="#3d4752">11 entries</text><path d="M220,250 H240 V156 H254" fill="none" stroke="#E67800" stroke-width="2.5"/><path d="M220,250 H240 V284 H254" fill="none" stroke="#E67800" stroke-width="2.5"/><path d="M220,250 H240 V374 H254" fill="none" stroke="#E67800" stroke-width="2.5"/><rect x="24" y="84" width="196" height="332" rx="12" fill="#E67800"/><text x="122.0" y="234" font-size="19" font-weight="700" fill="#ffffff" text-anchor="middle">Modification-based</text><text x="122.0" y="257" font-size="19" font-weight="700" fill="#ffffff" text-anchor="middle">Methods</text><text x="122.0" y="282" font-size="16" fill="#ffffff" text-anchor="middle" opacity="0.9">59 entries</text><path d="M490,522 H508 V465 H528" fill="none" stroke="#005CB8" stroke-width="2"/><rect x="528" y="450.0" width="348" height="30" rx="7" fill="#E6EFF8"/><text x="542" y="471.0" font-size="16" fill="#24292e">Optimizing Modeling</text><rect x="822" y="454.0" width="46" height="22" rx="11" fill="#005CB8"/><text x="845" y="470.0" font-size="15" font-weight="700" fill="#ffffff" text-anchor="middle">31</text><path d="M490,522 H508 V503 H528" fill="none" stroke="#005CB8" stroke-width="2"/><rect x="528" y="488.0" width="348" height="30" rx="7" fill="#E6EFF8"/><text x="542" y="509.0" font-size="16" fill="#24292e">Provable Security</text><rect x="822" y="492.0" width="46" height="22" rx="11" fill="#005CB8"/><text x="845" y="508.0" font-size="15" font-weight="700" fill="#ffffff" text-anchor="middle">26</text><path d="M490,522 H508 V541 H528" fill="none" stroke="#005CB8" stroke-width="2"/><rect x="528" y="526.0" width="348" height="30" rx="7" fill="#E6EFF8"/><text x="542" y="547.0" font-size="16" fill="#24292e">Powered by LLMs</text><rect x="822" y="530.0" width="46" height="22" rx="11" fill="#005CB8"/><text x="845" y="546.0" font-size="15" font-weight="700" fill="#ffffff" text-anchor="middle">16</text><path d="M490,522 H508 V579 H528" fill="none" stroke="#005CB8" stroke-width="2"/><rect x="528" y="564.0" width="348" height="30" rx="7" fill="#E6EFF8"/><text x="542" y="585.0" font-size="16" fill="#24292e">Other</text><rect x="822" y="568.0" width="46" height="22" rx="11" fill="#005CB8"/><text x="845" y="584.0" font-size="15" font-weight="700" fill="#ffffff" text-anchor="middle">8</text><rect x="254" y="450" width="236" height="144" rx="9" fill="#B8D1EB"/><text x="268" y="518" font-size="16" font-weight="700" fill="#1f2933">Toward Higher Security</text><text x="268" y="538" font-size="14" fill="#3d4752">81 entries</text><path d="M490,669 H508 V631 H528" fill="none" stroke="#005CB8" stroke-width="2"/><rect x="528" y="616.0" width="348" height="30" rx="7" fill="#E6EFF8"/><text x="542" y="637.0" font-size="16" fill="#24292e">More Embedding Units</text><rect x="822" y="620.0" width="46" height="22" rx="11" fill="#005CB8"/><text x="845" y="636.0" font-size="15" font-weight="700" fill="#ffffff" text-anchor="middle">9</text><path d="M490,669 H508 V669 H528" fill="none" stroke="#005CB8" stroke-width="2"/><rect x="528" y="654.0" width="348" height="30" rx="7" fill="#E6EFF8"/><text x="542" y="675.0" font-size="16" fill="#24292e">Entropy / Utilization</text><rect x="822" y="658.0" width="46" height="22" rx="11" fill="#005CB8"/><text x="845" y="674.0" font-size="15" font-weight="700" fill="#ffffff" text-anchor="middle">12</text><path d="M490,669 H508 V707 H528" fill="none" stroke="#005CB8" stroke-width="2"/><rect x="528" y="692.0" width="348" height="30" rx="7" fill="#E6EFF8"/><text x="542" y="713.0" font-size="16" fill="#24292e">Other</text><rect x="822" y="696.0" width="46" height="22" rx="11" fill="#005CB8"/><text x="845" y="712.0" font-size="15" font-weight="700" fill="#ffffff" text-anchor="middle">11</text><rect x="254" y="616" width="236" height="106" rx="9" fill="#B8D1EB"/><text x="268" y="666" font-size="16" font-weight="700" fill="#1f2933">Toward Higher Efficiency</text><text x="268" y="684" font-size="14" fill="#3d4752">32 entries</text><path d="M490,816 H508 V759 H528" fill="none" stroke="#005CB8" stroke-width="2"/><rect x="528" y="744.0" width="348" height="30" rx="7" fill="#E6EFF8"/><text x="542" y="765.0" font-size="16" fill="#24292e">Tokenization Inconsistency</text><rect x="822" y="748.0" width="46" height="22" rx="11" fill="#005CB8"/><text x="845" y="764.0" font-size="15" font-weight="700" fill="#ffffff" text-anchor="middle">8</text><path d="M490,816 H508 V797 H528" fill="none" stroke="#005CB8" stroke-width="2"/><rect x="528" y="782.0" width="348" height="30" rx="7" fill="#E6EFF8"/><text x="542" y="803.0" font-size="16" fill="#24292e">External Modification</text><rect x="822" y="786.0" width="46" height="22" rx="11" fill="#005CB8"/><text x="845" y="802.0" font-size="15" font-weight="700" fill="#ffffff" text-anchor="middle">17</text><path d="M490,816 H508 V835 H528" fill="none" stroke="#005CB8" stroke-width="2"/><rect x="528" y="820.0" width="348" height="30" rx="7" fill="#E6EFF8"/><text x="542" y="841.0" font-size="16" fill="#24292e">Context Synchronization</text><rect x="822" y="824.0" width="46" height="22" rx="11" fill="#005CB8"/><text x="845" y="840.0" font-size="15" font-weight="700" fill="#ffffff" text-anchor="middle">1</text><path d="M490,816 H508 V873 H528" fill="none" stroke="#005CB8" stroke-width="2"/><rect x="528" y="858.0" width="348" height="30" rx="7" fill="#E6EFF8"/><text x="542" y="879.0" font-size="16" fill="#24292e">Not further classified</text><rect x="822" y="862.0" width="46" height="22" rx="11" fill="#005CB8"/><text x="845" y="878.0" font-size="15" font-weight="700" fill="#ffffff" text-anchor="middle">1</text><rect x="254" y="744" width="236" height="144" rx="9" fill="#B8D1EB"/><text x="268" y="812" font-size="16" font-weight="700" fill="#1f2933">Toward Higher Robustness</text><text x="268" y="832" font-size="14" fill="#3d4752">27 entries</text><rect x="254" y="910" width="236" height="48" rx="9" fill="#B8D1EB"/><text x="268" y="930" font-size="16" font-weight="700" fill="#1f2933">Awaiting classification</text><text x="268" y="950" font-size="14" fill="#3d4752">1 entry</text><path d="M220,708 H240 V522 H254" fill="none" stroke="#005CB8" stroke-width="2.5"/><path d="M220,708 H240 V669 H254" fill="none" stroke="#005CB8" stroke-width="2.5"/><path d="M220,708 H240 V816 H254" fill="none" stroke="#005CB8" stroke-width="2.5"/><path d="M220,708 H240 V934 H254" fill="none" stroke="#005CB8" stroke-width="2.5"/><rect x="24" y="450" width="196" height="516" rx="12" fill="#005CB8"/><text x="122.0" y="680" font-size="19" font-weight="700" fill="#ffffff" text-anchor="middle">Generative</text><text x="122.0" y="704" font-size="19" font-weight="700" fill="#ffffff" text-anchor="middle">Linguistic</text><text x="122.0" y="726" font-size="19" font-weight="700" fill="#ffffff" text-anchor="middle">Steganography</text><text x="122.0" y="752" font-size="16" fill="#ffffff" text-anchor="middle" opacity="0.9">139 entries</text><path d="M490,1091 H508 V1015 H528" fill="none" stroke="#563194" stroke-width="2"/><rect x="528" y="1000.0" width="348" height="30" rx="7" fill="#EEEAF4"/><text x="542" y="1021.0" font-size="16" fill="#24292e">RNN-based</text><rect x="822" y="1004.0" width="46" height="22" rx="11" fill="#563194"/><text x="845" y="1020.0" font-size="15" font-weight="700" fill="#ffffff" text-anchor="middle">3</text><path d="M490,1091 H508 V1053 H528" fill="none" stroke="#563194" stroke-width="2"/><rect x="528" y="1038.0" width="348" height="30" rx="7" fill="#EEEAF4"/><text x="542" y="1059.0" font-size="16" fill="#24292e">CNN-based</text><rect x="822" y="1042.0" width="46" height="22" rx="11" fill="#563194"/><text x="845" y="1058.0" font-size="15" font-weight="700" fill="#ffffff" text-anchor="middle">5</text><path d="M490,1091 H508 V1091 H528" fill="none" stroke="#563194" stroke-width="2"/><rect x="528" y="1076.0" width="348" height="30" rx="7" fill="#EEEAF4"/><text x="542" y="1097.0" font-size="16" fill="#24292e">GNN-based</text><rect x="822" y="1080.0" width="46" height="22" rx="11" fill="#563194"/><text x="845" y="1096.0" font-size="15" font-weight="700" fill="#ffffff" text-anchor="middle">6</text><path d="M490,1091 H508 V1129 H528" fill="none" stroke="#563194" stroke-width="2"/><rect x="528" y="1114.0" width="348" height="30" rx="7" fill="#EEEAF4"/><text x="542" y="1135.0" font-size="16" fill="#24292e">Hybrid</text><rect x="822" y="1118.0" width="46" height="22" rx="11" fill="#563194"/><text x="845" y="1134.0" font-size="15" font-weight="700" fill="#ffffff" text-anchor="middle">6</text><path d="M490,1091 H508 V1167 H528" fill="none" stroke="#563194" stroke-width="2"/><rect x="528" y="1152.0" width="348" height="30" rx="7" fill="#EEEAF4"/><text x="542" y="1173.0" font-size="16" fill="#24292e">Other</text><rect x="822" y="1156.0" width="46" height="22" rx="11" fill="#563194"/><text x="845" y="1172.0" font-size="15" font-weight="700" fill="#ffffff" text-anchor="middle">3</text><rect x="254" y="1000" width="236" height="182" rx="9" fill="#D0C5E1"/><text x="268" y="1078" font-size="16" font-weight="700" fill="#1f2933">Self-trained Word</text><text x="268" y="1097" font-size="16" font-weight="700" fill="#1f2933">Representations</text><text x="268" y="1116" font-size="14" fill="#3d4752">23 entries</text><path d="M490,1276 H508 V1219 H528" fill="none" stroke="#563194" stroke-width="2"/><rect x="528" y="1204.0" width="348" height="30" rx="7" fill="#EEEAF4"/><text x="542" y="1225.0" font-size="16" fill="#24292e">Masked-LM-based</text><rect x="822" y="1208.0" width="46" height="22" rx="11" fill="#563194"/><text x="845" y="1224.0" font-size="15" font-weight="700" fill="#ffffff" text-anchor="middle">28</text><path d="M490,1276 H508 V1257 H528" fill="none" stroke="#563194" stroke-width="2"/><rect x="528" y="1242.0" width="348" height="30" rx="7" fill="#EEEAF4"/><text x="542" y="1263.0" font-size="16" fill="#24292e">Generative LM / LLM-based</text><rect x="822" y="1246.0" width="46" height="22" rx="11" fill="#563194"/><text x="845" y="1262.0" font-size="15" font-weight="700" fill="#ffffff" text-anchor="middle">9</text><path d="M490,1276 H508 V1295 H528" fill="none" stroke="#563194" stroke-width="2"/><rect x="528" y="1280.0" width="348" height="30" rx="7" fill="#EEEAF4"/><text x="542" y="1301.0" font-size="16" fill="#24292e">Other</text><rect x="822" y="1284.0" width="46" height="22" rx="11" fill="#563194"/><text x="845" y="1300.0" font-size="15" font-weight="700" fill="#ffffff" text-anchor="middle">5</text><path d="M490,1276 H508 V1333 H528" fill="none" stroke="#563194" stroke-width="2"/><rect x="528" y="1318.0" width="348" height="30" rx="7" fill="#EEEAF4"/><text x="542" y="1339.0" font-size="16" fill="#24292e">Not further classified</text><rect x="822" y="1322.0" width="46" height="22" rx="11" fill="#563194"/><text x="845" y="1338.0" font-size="15" font-weight="700" fill="#ffffff" text-anchor="middle">3</text><rect x="254" y="1204" width="236" height="144" rx="9" fill="#D0C5E1"/><text x="268" y="1263" font-size="16" font-weight="700" fill="#1f2933">Pre-trained Word</text><text x="268" y="1282" font-size="16" font-weight="700" fill="#1f2933">Representations</text><text x="268" y="1301" font-size="14" fill="#3d4752">45 entries</text><rect x="254" y="1370" width="236" height="48" rx="9" fill="#D0C5E1"/><text x="268" y="1390" font-size="16" font-weight="700" fill="#1f2933">Awaiting classification</text><text x="268" y="1410" font-size="14" fill="#3d4752">10 entries</text><path d="M220,1213 H240 V1091 H254" fill="none" stroke="#563194" stroke-width="2.5"/><path d="M220,1213 H240 V1276 H254" fill="none" stroke="#563194" stroke-width="2.5"/><path d="M220,1213 H240 V1394 H254" fill="none" stroke="#563194" stroke-width="2.5"/><rect x="24" y="1000" width="196" height="426" rx="12" fill="#563194"/><text x="122.0" y="1197" font-size="19" font-weight="700" fill="#ffffff" text-anchor="middle">Linguistic</text><text x="122.0" y="1220" font-size="19" font-weight="700" fill="#ffffff" text-anchor="middle">Steganalysis</text><text x="122.0" y="1245" font-size="16" fill="#ffffff" text-anchor="middle" opacity="0.9">78 entries</text></svg>
